# xmcd
#
# Track frame offsets:
#	150
#	16038
#	26383
#	34654
#	48002
#	61339
#	70433
#	84223
#	95255
#	108289
#	123745
#	132653
#	144922
#	160610
#
# Disc length: 2301 seconds
#
# Revision: 0
# Processed by: cddbd v1.5.2PL0 Copyright (c) Steve Scherf et al.
# Submitted via: audiograbber 1.83.01
#
DISCID=a908fb0e
DTITLE=Burson Family - Burson Family Ranch
DYEAR=2001
DGENRE=Bluegrass
TTITLE0=Texas River Song
TTITLE1=Moon Light On The Water
TTITLE2=Rain Song
TTITLE3=Old Cowboy's Waltz
TTITLE4=Wild Rippling Waters
TTITLE5=Callie Beth's Lullaby
TTITLE6=Old Chisum Trail
TTITLE7=Shenandoah
TTITLE8=Cowboy Life I Lead
TTITLE9=Pap
TTITLE10=Memaw's Front Yard
TTITLE11=Cowboy Angel
TTITLE12=Code Of The West
TTITLE13=Ridin Down The Canyon
EXTD=
EXTT0=
EXTT1=
EXTT2=
EXTT3=
EXTT4=
EXTT5=
EXTT6=
EXTT7=
EXTT8=
EXTT9=
EXTT10=
EXTT11=
EXTT12=
EXTT13=
PLAYORDER=
